<?xml version="1.0" encoding="utf-8"?>
<svg width="320" height="520" viewBox="0 0 320 520" fill="none" xmlns="http://www.w3.org/2000/svg">
  <g>
    <rect width="320" height="520" />
    <path id="Oval" d="M40 64.8984C40 68.0012 40 71.9988 40 75.1016C40 77.8069 37.799 80.0316 35.1135 79.7045C15.327 77.2945 0 60.4372 0 40C0 17.9086 17.9086 0 40 0C62.0914 0 80 17.9086 80 40C80 60.4372 64.673 77.2945 44.8865 79.7045C42.201 80.0316 40 77.8069 40 75.1016C40 71.9988 40 68.0012 40 64.8984C40 62.1931 42.2251 60.0618 44.8503 59.4078C53.5523 57.2401 60 49.373 60 40C60 28.9543 51.0457 20 40 20C28.9543 20 20 28.9543 20 40C20 49.373 26.4477 57.2401 35.1497 59.4078C37.7749 60.0618 40 62.1931 40 64.8984Z" fill="#000000" fill-rule="evenodd" transform="translate(120 80)" />
    <path id="Path" d="M0.310899 311.151L115.843 2.52463C116.792 -0.00900269 119.299 -0.72287 121.547 0.781418C128.421 5.37973 143.173 13.9371 157.771 13.9371C172.318 13.9371 186.713 5.43782 193.45 0.828461C195.682 -0.699203 198.179 -0.0118256 199.136 2.51831L315.26 309.299Q315.312 309.438 315.356 309.579Q315.4 309.72 315.436 309.864Q315.471 310.008 315.498 310.153Q315.524 310.299 315.542 310.446Q315.56 310.593 315.569 310.74Q315.577 310.888 315.577 311.036Q315.577 311.184 315.568 311.332Q315.559 311.479 315.541 311.626Q315.523 311.773 315.497 311.919Q315.47 312.064 315.434 312.208Q315.399 312.351 315.355 312.493Q315.311 312.634 315.258 312.772Q315.206 312.911 315.145 313.045Q315.084 313.18 315.015 313.311Q314.947 313.442 314.87 313.569Q314.793 313.695 314.709 313.817Q314.625 313.939 314.534 314.055Q314.443 314.172 314.344 314.283Q314.246 314.393 314.142 314.498Q314.037 314.603 313.926 314.701Q313.815 314.799 313.699 314.89Q313.582 314.981 313.461 315.065Q313.339 315.149 313.212 315.226Q313.086 315.302 312.955 315.371Q312.823 315.44 312.689 315.5Q312.554 315.561 312.415 315.614Q312.277 315.666 312.136 315.71Q311.994 315.754 311.851 315.79Q311.707 315.825 311.561 315.852Q311.416 315.878 311.269 315.896Q311.122 315.914 310.974 315.923Q310.827 315.932 310.679 315.932L243.065 315.932Q242.736 315.932 242.409 315.888Q242.083 315.844 241.766 315.757Q241.449 315.669 241.146 315.541Q240.843 315.412 240.561 315.244Q240.278 315.075 240.02 314.871Q239.762 314.666 239.534 314.429Q239.306 314.192 239.112 313.927Q238.918 313.661 238.76 313.372L199.161 240.497Q199.004 240.208 198.81 239.942Q198.616 239.677 198.388 239.44Q198.16 239.203 197.902 238.998Q197.644 238.794 197.361 238.625Q197.078 238.457 196.776 238.328Q196.473 238.2 196.156 238.112Q195.838 238.025 195.512 237.981Q195.186 237.937 194.857 237.937L116.034 237.937Q115.851 237.937 115.667 237.951Q115.484 237.965 115.303 237.992Q115.121 238.02 114.942 238.061Q114.763 238.101 114.587 238.156Q114.412 238.21 114.241 238.277Q114.07 238.344 113.905 238.424Q113.739 238.504 113.58 238.596Q113.421 238.688 113.27 238.792Q113.118 238.895 112.975 239.01Q112.831 239.125 112.697 239.25Q112.562 239.375 112.438 239.51Q112.313 239.645 112.199 239.789Q112.085 239.932 111.981 240.084Q111.878 240.236 111.787 240.396Q111.695 240.555 111.616 240.721Q111.537 240.886 111.47 241.057L83.4847 312.89Q83.4194 313.058 83.3419 313.221Q83.2644 313.383 83.1752 313.539Q83.086 313.696 82.9855 313.845Q82.885 313.995 82.7739 314.136Q82.6628 314.278 82.5415 314.411Q82.4203 314.544 82.2896 314.668Q82.1589 314.792 82.0195 314.906Q81.8801 315.02 81.7326 315.123Q81.5852 315.226 81.4306 315.319Q81.276 315.411 81.1151 315.491Q80.9541 315.572 80.7877 315.641Q80.6212 315.709 80.4502 315.766Q80.2792 315.822 80.1045 315.865Q79.9298 315.909 79.7524 315.939Q79.575 315.97 79.3958 315.987Q79.2166 316.005 79.0366 316.009L5.01462 317.765Q4.86516 317.769 4.71576 317.763Q4.56636 317.758 4.41758 317.743Q4.2688 317.728 4.12119 317.705Q3.97358 317.681 3.82769 317.648Q3.6818 317.616 3.53818 317.574Q3.39456 317.533 3.25373 317.482Q3.11291 317.432 2.97541 317.373Q2.83791 317.315 2.70424 317.248Q2.57058 317.181 2.44124 317.106Q2.31191 317.031 2.18739 316.948Q2.06287 316.865 1.94363 316.775Q1.82439 316.685 1.71087 316.588Q1.59735 316.49 1.48998 316.386Q1.3826 316.282 1.28177 316.172Q1.18094 316.062 1.08703 315.945Q0.993118 315.829 0.906475 315.707Q0.819832 315.585 0.740781 315.458Q0.661729 315.332 0.590564 315.2Q0.519398 315.069 0.456383 314.933Q0.393368 314.797 0.338738 314.658Q0.284109 314.519 0.238067 314.377Q0.192026 314.235 0.154745 314.09Q0.117463 313.945 0.0890809 313.798Q0.0606983 313.651 0.0413201 313.503Q0.0219419 313.355 0.0116402 313.206Q0.00133851 313.057 0.000151698 312.907Q-0.00103512 312.758 0.00689736 312.608Q0.0148298 312.459 0.0318521 312.311Q0.0488743 312.162 0.0749229 312.015Q0.100972 311.868 0.13595 311.722Q0.170928 311.577 0.214705 311.434Q0.258482 311.291 0.310896 311.151L0.310899 311.151Z" fill="#000000" fill-rule="evenodd" stroke-width="5" stroke="#000000" transform="translate(0 162)" />
    <path id="Path" d="M4.89844 120L71.2917 120Q71.4368 120 71.5816 119.991Q71.7264 119.983 71.8704 119.966Q72.0144 119.949 72.1572 119.923Q72.3 119.897 72.441 119.863Q72.582 119.829 72.7207 119.787Q72.8594 119.745 72.9954 119.694Q73.1314 119.644 73.2642 119.585Q73.3969 119.527 73.526 119.461Q73.6551 119.395 73.78 119.321Q73.905 119.247 74.0253 119.166Q74.1457 119.085 74.2611 118.997Q74.3764 118.91 74.4864 118.815Q74.5963 118.72 74.7005 118.619Q74.8047 118.518 74.9027 118.412Q75.0007 118.305 75.0922 118.192Q75.1837 118.08 75.2684 117.962Q75.3531 117.844 75.4307 117.721Q75.5082 117.599 75.5784 117.472Q75.6486 117.345 75.7112 117.214Q75.7737 117.083 75.8284 116.949Q75.8831 116.815 75.9298 116.677Q75.9765 116.54 76.0149 116.4Q76.0534 116.26 76.0835 116.118Q76.1136 115.977 76.1352 115.833Q76.1569 115.69 76.17 115.545Q76.1832 115.401 76.1877 115.256Q76.1923 115.111 76.1883 114.966Q76.1843 114.821 76.1717 114.676Q76.1591 114.532 76.138 114.388Q76.1169 114.245 76.0873 114.103Q76.0577 113.961 76.0198 113.821Q75.9819 113.681 75.9357 113.543L38.2225 1.14781Q38.1022 0.789185 38.1022 0.410904L38.1022 0L0.251373 113.553Q0.205554 113.69 0.167939 113.83Q0.130324 113.97 0.101046 114.112Q0.0717682 114.254 0.050929 114.397Q0.0300897 114.54 0.0177622 114.685Q0.00543467 114.829 0.001662 114.974Q-0.00211066 115.119 0.00268471 115.264Q0.00748008 115.408 0.0208267 115.553Q0.0341734 115.697 0.0560246 115.84Q0.0778759 115.984 0.108155 116.125Q0.138435 116.267 0.177037 116.407Q0.215638 116.546 0.262427 116.683Q0.309216 116.82 0.364029 116.955Q0.418842 117.089 0.481487 117.219Q0.544132 117.35 0.61439 117.477Q0.684647 117.603 0.762273 117.726Q0.839898 117.848 0.924619 117.966Q1.00934 118.083 1.10086 118.196Q1.19238 118.308 1.29038 118.415Q1.38838 118.521 1.49252 118.622Q1.59666 118.723 1.70657 118.817Q1.81648 118.912 1.93177 118.999Q2.04707 119.087 2.16736 119.168Q2.28764 119.249 2.41249 119.322Q2.53734 119.396 2.66631 119.462Q2.79529 119.528 2.92794 119.586Q3.0606 119.644 3.19647 119.695Q3.33233 119.745 3.47094 119.787Q3.60954 119.83 3.7504 119.864Q3.89126 119.898 4.03388 119.923Q4.1765 119.949 4.32038 119.966Q4.46426 119.983 4.6089 119.991Q4.75354 120 4.89844 120Z" fill="#FFFFFF" fill-rule="evenodd" stroke-width="5" stroke="#000000" transform="translate(120 240)" />
  </g>
</svg>
